<?xml version="1.0" encoding="UTF-8"?>
<svg version="1.1" xmlns="http://www.w3.org/2000/svg" width="1024" height="1024">
<path d="M0 0 C6.09433333 0.00229584 12.188664 -0.0012471 18.28299677 -0.00397992 C29.52226373 -0.00814688 40.76152525 -0.00781575 52.00079208 -0.00506845 C62.46140434 -0.00252554 72.92201463 -0.00190851 83.38262713 -0.0030911 C84.08393963 -0.00316748 84.78525212 -0.00324387 85.50781652 -0.00332257 C88.35787323 -0.00363412 91.20792995 -0.00395254 94.05798667 -0.00428233 C120.77695344 -0.00733648 147.49591685 -0.00458259 174.2148831 0.00081457 C196.84042776 0.00535064 219.46596731 0.00542832 242.09151196 0.00080835 C421.43516805 -0.03576791 421.43516805 -0.03576791 526.92563593 0.36216998 C527.79503905 0.36712684 528.66444216 0.3720837 529.56019083 0.37719077 C561.41516357 0.56021542 593.26903575 0.85666194 625.12338984 1.13072467 C625.12338984 44.36072467 625.12338984 87.59072467 625.12338984 132.13072467 C614.56338984 132.13072467 604.00338984 132.13072467 593.12338984 132.13072467 C593.45338984 142.36072467 593.78338984 152.59072467 594.12338984 163.13072467 C577.82365162 164.29499168 577.82365162 164.29499168 570.87338984 164.25572467 C570.1424914 164.25959186 569.41159297 164.26345904 568.65854609 164.26744342 C563.37730334 164.25768142 563.37730334 164.25768142 561.12338984 163.13072467 C561.12338984 173.69072467 561.12338984 184.25072467 561.12338984 195.13072467 C550.56338984 195.13072467 540.00338984 195.13072467 529.12338984 195.13072467 C529.16298895 205.61695632 529.16298895 205.61695632 529.21347773 216.10313678 C529.21722407 218.04845294 529.21722407 218.04845294 529.22104609 220.03306842 C529.22616206 220.71888995 529.23127802 221.40471148 529.23654902 222.11131549 C529.23686038 223.78487698 529.18561821 225.45832047 529.12338984 227.13072467 C528.12338984 228.13072467 528.12338984 228.13072467 525.16416132 228.24425006 C523.87066767 228.23901324 522.57717402 228.23377643 521.24448359 228.22838092 C520.21448992 228.2262585 520.21448992 228.2262585 519.1636883 228.2240932 C516.96271183 228.21847946 514.76183575 228.20592474 512.56088984 228.19322467 C511.07195901 228.18821143 509.5830266 228.18364822 508.09409297 228.17955279 C504.43715909 228.1685056 500.78028426 228.1512318 497.12338984 228.13072467 C497.12862666 229.06456988 497.13386347 229.9984151 497.13925898 230.96055865 C497.15626604 234.41385263 497.16882286 237.86710234 497.17832148 241.32042193 C497.18336105 242.81717385 497.19019271 244.31392082 497.19882929 245.81065631 C497.21091143 247.95772274 497.21662175 250.10472429 497.22104609 252.25181842 C497.22628291 253.54531207 497.23151972 254.83880572 497.23691523 256.17149615 C497.12338984 259.13072467 497.12338984 259.13072467 496.12338984 260.13072467 C493.83187567 260.21863442 491.5376646 260.23766505 489.24448359 260.22838092 C488.21448992 260.2262585 488.21448992 260.2262585 487.1636883 260.2240932 C484.96271183 260.21847946 482.76183575 260.20592474 480.56088984 260.19322467 C479.07195901 260.18821143 477.5830266 260.18364822 476.09409297 260.17955279 C472.43715909 260.1685056 468.78028426 260.1512318 465.12338984 260.13072467 C465.36678095 260.92700274 465.36678095 260.92700274 465.61508906 261.73936725 C466.23818296 264.67078162 466.25313936 267.39488309 466.25620234 270.39244342 C466.2574914 271.59320514 466.25878047 272.79396686 466.26010859 274.03111529 C466.2562414 275.28086139 466.25237422 276.53060748 466.24838984 277.81822467 C466.25225703 279.07957232 466.25612422 280.34091998 466.26010859 281.64049029 C466.25881953 282.83738482 466.25753047 284.03427936 466.25620234 285.26744342 C466.25451045 286.91812823 466.25451045 286.91812823 466.25278437 288.60216022 C466.12338984 291.13072467 466.12338984 291.13072467 465.12338984 292.13072467 C462.74797933 292.21911115 460.40105404 292.2460999 458.02573359 292.22838092 C456.08041743 292.22463458 456.08041743 292.22463458 454.09580195 292.22081256 C452.43428095 292.21170856 450.77275996 292.20260455 449.06088984 292.19322467 C443.80151484 292.17259967 438.54213984 292.15197467 433.12338984 292.13072467 C433.12338984 302.69072467 433.12338984 313.25072467 433.12338984 324.13072467 C422.56338984 324.13072467 412.00338984 324.13072467 401.12338984 324.13072467 C401.16298806 334.28785559 401.16298806 334.28785559 401.21347773 344.44493365 C401.21722407 346.32934161 401.21722407 346.32934161 401.22104609 348.25181842 C401.22890131 350.1920589 401.22890131 350.1920589 401.23691523 352.17149615 C401.12338984 355.13072467 401.12338984 355.13072467 400.12338984 356.13072467 C397.9065099 356.28946422 395.68483686 356.38206304 393.46323359 356.44713092 C392.24756709 356.48523883 391.03190058 356.52334674 389.7793957 356.56260943 C388.22228877 356.60571246 386.66518183 356.64881549 385.06088984 356.69322467 C380.13151484 356.83759967 375.20213984 356.98197467 370.12338984 357.13072467 C369.79338984 367.36072467 369.46338984 377.59072467 369.12338984 388.13072467 C358.56338984 388.13072467 348.00338984 388.13072467 337.12338984 388.13072467 C337.45338984 389.12072467 337.78338984 390.11072467 338.12338984 391.13072467 C338.1393195 393.19746373 338.08954783 395.2649855 338.00229609 397.32994342 C337.93764155 398.96322589 337.93764155 398.96322589 337.87168086 400.62950397 C337.81036982 402.0117818 337.74905879 403.39405963 337.68588984 404.81822467 C337.50026484 409.21134967 337.31463984 413.60447467 337.12338984 418.13072467 C347.68338984 418.13072467 358.24338984 418.13072467 369.12338984 418.13072467 C369.12338984 428.69072467 369.12338984 439.25072467 369.12338984 450.13072467 C379.68338984 450.13072467 390.24338984 450.13072467 401.12338984 450.13072467 C401.12338984 460.69072467 401.12338984 471.25072467 401.12338984 482.13072467 C411.68338984 482.13072467 422.24338984 482.13072467 433.12338984 482.13072467 C433.45338984 492.69072467 433.78338984 503.25072467 434.12338984 514.13072467 C444.35338984 514.13072467 454.58338984 514.13072467 465.12338984 514.13072467 C465.28838984 517.76072467 465.45338984 521.39072467 465.62338984 525.13072467 C465.67559687 526.25865436 465.7278039 527.38658404 465.78159297 528.54869342 C465.82219843 529.46263873 465.8628039 530.37658404 465.90463984 531.31822467 C465.96748164 532.7007442 465.96748164 532.7007442 466.03159297 534.11119342 C466.14321366 537.78280165 466.12338984 541.45742014 466.12338984 545.13072467 C476.35338984 545.46072467 486.58338984 545.79072467 497.12338984 546.13072467 C497.12338984 556.03072467 497.12338984 565.93072467 497.12338984 576.13072467 C500.0226335 577.5803465 502.64639339 577.35198948 505.88120234 577.44713092 C507.09437129 577.48523883 508.30754023 577.52334674 509.55747187 577.56260943 C511.1054748 577.60571246 512.65347773 577.64881549 514.24838984 577.69322467 C519.15713984 577.83759967 524.06588984 577.98197467 529.12338984 578.13072467 C529.12338984 588.36072467 529.12338984 598.59072467 529.12338984 609.13072467 C538.53223222 609.09119053 538.53223222 609.09119053 547.94101679 609.04063678 C549.11108271 609.03813922 550.28114863 609.03564166 551.48667109 609.03306842 C552.68590205 609.0278316 553.885133 609.02259479 555.12070429 609.01719928 C558.12338984 609.13072467 558.12338984 609.13072467 561.12338984 610.13072467 C561.45338984 620.36072467 561.78338984 630.59072467 562.12338984 641.13072467 C572.35338984 641.46072467 582.58338984 641.79072467 593.12338984 642.13072467 C593.56088984 651.44322467 593.56088984 651.44322467 593.69150507 654.30382037 C593.9979809 660.61411217 594.55011073 666.82465449 595.12338984 673.13072467 C605.02338984 673.46072467 614.92338984 673.79072467 625.12338984 674.13072467 C625.12338984 737.82072467 625.12338984 801.51072467 625.12338984 867.13072467 C392.80338984 867.13072467 160.48338984 867.13072467 -78.87661016 867.13072467 C-79.20661016 803.44072467 -79.53661016 739.75072467 -79.87661016 674.13072467 C-69.31661016 674.13072467 -58.75661016 674.13072467 -47.87661016 674.13072467 C-47.87661016 663.57072467 -47.87661016 653.01072467 -47.87661016 642.13072467 C-38.30661016 641.80072467 -28.73661016 641.47072467 -18.87661016 641.13072467 C-16.82646044 637.03042522 -16.66296611 635.5426167 -16.78676641 631.12291217 C-16.80674688 629.97177936 -16.82672735 628.82064654 -16.84731328 627.63463092 C-16.90871127 625.207451 -16.97383967 622.78036269 -17.04262578 620.35338092 C-17.07066289 618.63054889 -17.07066289 618.63054889 -17.09926641 616.87291217 C-17.12770635 615.81958697 -17.15614629 614.76626178 -17.18544805 613.68101764 C-17.08353155 612.83942096 -16.98161504 611.99782428 -16.87661016 611.13072467 C-13.53167937 608.90077081 -12.44657743 608.88340706 -8.54457891 608.90025592 C-7.49850469 608.90218951 -6.45243047 608.90412311 -5.37465703 608.90611529 C-4.28217657 608.91836139 -3.1896961 608.93060748 -2.06411016 608.94322467 C-0.98323125 608.9438692 0.09764765 608.94451373 1.21128047 608.94517779 C6.39332637 608.97380788 10.96635837 609.27121942 16.12338984 610.13072467 C16.12338984 599.57072467 16.12338984 589.01072467 16.12338984 578.13072467 C26.68338984 578.13072467 37.24338984 578.13072467 48.12338984 578.13072467 C47.75485798 567.97341097 47.75485798 567.97341097 47.37509882 557.81651568 C47.31044428 555.93210773 47.31044428 555.93210773 47.24448359 554.00963092 C47.17378657 552.06939044 47.17378657 552.06939044 47.10166132 550.08995318 C47.12338984 547.13072467 47.12338984 547.13072467 48.12338984 546.13072467 C50.14761629 545.98437232 52.17662408 545.90327449 54.20542109 545.84947467 C55.44743281 545.81209186 56.68944453 545.77470904 57.96909297 545.73619342 C59.27813593 545.70138873 60.5871789 545.66658404 61.93588984 545.63072467 C64.50501063 545.56180638 67.07403222 545.48905462 69.64292109 545.41197467 C70.78865595 545.3816817 71.93439082 545.35138873 73.11484492 545.32017779 C75.61693941 545.1626167 77.73576979 544.85289476 80.12338984 544.13072467 C79.95589228 543.26109088 79.78839472 542.39145709 79.61582148 541.49547076 C79.14951991 538.30926937 79.08924466 535.50305833 79.24448359 532.29478717 C79.29282343 531.23131061 79.34116328 530.16783404 79.39096797 529.07213092 C79.44704218 527.97771686 79.5031164 526.88330279 79.56088984 525.75572467 C79.61309687 524.63810748 79.6653039 523.52049029 79.71909297 522.36900592 C79.848198 519.62258975 79.98313888 516.87659045 80.12338984 514.13072467 C83.60004079 513.06183943 86.79476462 513.015967 90.42026484 513.03306842 C91.50662226 513.03556598 92.59297968 513.03806354 93.71225703 513.04063678 C95.77201777 513.05429278 95.77201777 513.05429278 97.87338984 513.06822467 C102.24588984 513.08884967 106.61838984 513.10947467 111.12338984 513.13072467 C111.45338984 502.90072467 111.78338984 492.67072467 112.12338984 482.13072467 C115.59618388 480.97312666 118.10377808 481.10811984 121.76010859 481.25181842 C122.93017451 481.29492145 124.10024043 481.33802447 125.30576289 481.38243365 C126.79245478 481.44374469 128.27914668 481.50505572 129.81088984 481.56822467 C134.53401484 481.75384967 139.25713984 481.93947467 144.12338984 482.13072467 C144.12338984 471.57072467 144.12338984 461.01072467 144.12338984 450.13072467 C154.68338984 450.13072467 165.24338984 450.13072467 176.12338984 450.13072467 C176.12338984 439.57072467 176.12338984 429.01072467 176.12338984 418.13072467 C186.68338984 418.13072467 197.24338984 418.13072467 208.12338984 418.13072467 C208.12338984 408.56072467 208.12338984 398.99072467 208.12338984 389.13072467 C197.56338984 388.80072467 187.00338984 388.47072467 176.12338984 388.13072467 C176.12338984 377.57072467 176.12338984 367.01072467 176.12338984 356.13072467 C165.96625892 356.17032289 165.96625892 356.17032289 155.80918086 356.22081256 C154.55290888 356.22331012 153.29663691 356.22580768 152.00229609 356.22838092 C150.06205561 356.23623614 150.06205561 356.23623614 148.08261836 356.24425006 C145.12338984 356.13072467 145.12338984 356.13072467 144.12338984 355.13072467 C144.03548009 352.8392105 144.01644946 350.54499943 144.02573359 348.25181842 C144.02785601 347.22182475 144.02785601 347.22182475 144.03002131 346.17102313 C144.03563505 343.97004666 144.04818977 341.76917058 144.06088984 339.56822467 C144.06590308 338.07929384 144.07046629 336.59036143 144.07456172 335.10142779 C144.08560891 331.44449392 144.10288271 327.78761908 144.12338984 324.13072467 C142.72262202 324.13857989 142.72262202 324.13857989 141.29355586 324.14659381 C137.84026188 324.16360087 134.38701217 324.17615769 130.93369257 324.18565631 C129.43694066 324.19069588 127.94019368 324.19752754 126.4434582 324.20616412 C124.29639177 324.21824626 122.14939022 324.22395658 120.00229609 324.22838092 C118.06205561 324.23623614 118.06205561 324.23623614 116.08261836 324.24425006 C113.12338984 324.13072467 113.12338984 324.13072467 112.12338984 323.13072467 C112.03548009 320.8392105 112.01644946 318.54499943 112.02573359 316.25181842 C112.02785601 315.22182475 112.02785601 315.22182475 112.03002131 314.17102313 C112.03563505 311.97004666 112.04818977 309.76917058 112.06088984 307.56822467 C112.06590308 306.07929384 112.07046629 304.59036143 112.07456172 303.10142779 C112.08560891 299.44449392 112.10288271 295.78761908 112.12338984 292.13072467 C110.72262202 292.13857989 110.72262202 292.13857989 109.29355586 292.14659381 C105.84026188 292.16360087 102.38701217 292.17615769 98.93369257 292.18565631 C97.43694066 292.19069588 95.94019368 292.19752754 94.4434582 292.20616412 C92.29639177 292.21824626 90.14939022 292.22395658 88.00229609 292.22838092 C86.06205561 292.23623614 86.06205561 292.23623614 84.08261836 292.24425006 C81.12338984 292.13072467 81.12338984 292.13072467 80.12338984 291.13072467 C80.03548009 288.8392105 80.01644946 286.54499943 80.02573359 284.25181842 C80.02785601 283.22182475 80.02785601 283.22182475 80.03002131 282.17102313 C80.03563505 279.97004666 80.04818977 277.76917058 80.06088984 275.56822467 C80.06590308 274.07929384 80.07046629 272.59036143 80.07456172 271.10142779 C80.08560891 267.44449392 80.10288271 263.78761908 80.12338984 260.13072467 C79.22507441 260.13596148 78.32675898 260.1411983 77.40122187 260.14659381 C74.07276485 260.16362192 70.74435403 260.17616804 67.41587031 260.18565631 C65.97445664 260.1906894 64.53304808 260.1975164 63.09165156 260.20616412 C61.02148899 260.2182745 58.95139383 260.22396314 56.88120234 260.22838092 C55.63484004 260.23361773 54.38847773 260.23885455 53.10434687 260.24425006 C50.12338984 260.13072467 50.12338984 260.13072467 48.12338984 259.13072467 C48.12338984 248.90072467 48.12338984 238.67072467 48.12338984 228.13072467 C42.45597775 228.16967252 42.45597775 228.16967252 36.78867304 228.22081256 C29.79794988 228.24443759 23.17054692 227.67281367 16.12338984 227.13072467 C16.12338984 216.57072467 16.12338984 206.01072467 16.12338984 195.13072467 C13.15338984 195.46072467 10.18338984 195.79072467 7.12338984 196.13072467 C5.15297167 196.14439 3.18109846 196.1108354 1.21323359 196.00963092 C0.30178584 195.96652789 -0.60966192 195.92342486 -1.5487293 195.87901568 C-2.66755498 195.81770465 -3.78638067 195.75639361 -4.93911016 195.69322467 C-8.54848516 195.50759967 -12.15786016 195.32197467 -15.87661016 195.13072467 C-15.87661016 184.57072467 -15.87661016 174.01072467 -15.87661016 163.13072467 C-18.18661016 163.46072467 -20.49661016 163.79072467 -22.87661016 164.13072467 C-24.92773789 164.14514983 -26.98000203 164.1051779 -29.02895391 164.00963092 C-30.02660772 163.96652789 -31.02426153 163.92342486 -32.05214727 163.87901568 C-33.29359502 163.81770465 -34.53504278 163.75639361 -35.81411016 163.69322467 C-39.79473516 163.50759967 -43.77536016 163.32197467 -47.87661016 163.13072467 C-47.87661016 152.90072467 -47.87661016 142.67072467 -47.87661016 132.13072467 C-58.10661016 132.13072467 -68.33661016 132.13072467 -78.87661016 132.13072467 C-79.02958096 115.19814041 -79.17840582 98.26553721 -79.31957376 81.33285117 C-79.38525029 73.47125965 -79.4528209 65.60969282 -79.52480352 57.74815631 C-79.58751631 50.89849883 -79.6467232 44.04882171 -79.7016657 37.19909734 C-79.73089895 33.57001062 -79.76192457 29.94095866 -79.79714429 26.3119247 C-79.83633213 22.26726345 -79.86769468 18.2225788 -79.89833868 14.17784381 C-79.91128469 12.96584308 -79.9242307 11.75384234 -79.93756902 10.50511432 C-79.94460851 9.40989963 -79.951648 8.31468493 -79.95890081 7.18628192 C-79.96719695 6.22853901 -79.97549308 5.2707961 -79.98404062 4.28403068 C-79.87661016 2.13072467 -79.87661016 2.13072467 -78.87661016 1.13072467 C-74.39862093 0.74483008 -69.89439084 0.70037417 -65.40207708 0.57631183 C-64.68192007 0.55534029 -63.96176306 0.53436876 -63.2197831 0.51276173 C-42.15120301 -0.08659974 -21.07512231 -0.01178605 0 0 Z M-13.87661016 132.13072467 C-13.87661016 141.70072467 -13.87661016 151.27072467 -13.87661016 161.13072467 C11.92211145 161.15384053 37.72083059 161.17170228 63.51956046 161.18253684 C75.49745182 161.18770047 87.47533665 161.19474444 99.45322382 161.20616412 C109.88907467 161.21610891 120.32492077 161.22257761 130.76077622 161.22481316 C136.29014579 161.22612062 141.81950182 161.22920867 147.34886706 161.23645473 C152.54684857 161.24321171 157.74481087 161.24534229 162.94279635 161.24383235 C164.85648289 161.24410882 166.77017003 161.24611584 168.68385279 161.24993014 C171.28468915 161.25486238 173.88545177 161.25372471 176.48628962 161.25097919 C177.25378454 161.25389203 178.02127946 161.25680487 178.81203181 161.25980598 C182.2570389 161.56152381 182.2570389 161.56152381 185.12338984 160.13072467 C185.12338984 160.46072467 185.12338984 160.79072467 185.12338984 161.13072467 C308.54338984 161.13072467 431.96338984 161.13072467 559.12338984 161.13072467 C559.12338984 151.56072467 559.12338984 141.99072467 559.12338984 132.13072467 C370.03338984 132.13072467 180.94338984 132.13072467 -13.87661016 132.13072467 Z M210.12338984 420.13072467 C210.12338984 431.02072467 210.12338984 441.91072467 210.12338984 453.13072467 C207.81338984 452.80072467 205.50338984 452.47072467 203.12338984 452.13072467 C201.15859458 452.04546665 199.19159517 452.00021696 197.22495234 451.99791217 C196.16921015 451.99662311 195.11346797 451.99533404 194.02573359 451.99400592 C192.40344843 451.9998067 192.40344843 451.9998067 190.74838984 452.00572467 C189.64366328 452.00185748 188.53893672 451.99799029 187.40073359 451.99400592 C186.35272578 451.99529498 185.30471797 451.99658404 184.22495234 451.99791217 C182.79143427 451.99960406 182.79143427 451.99960406 181.32895625 452.00133014 C179.14846759 451.88415351 179.14846759 451.88415351 178.12338984 453.13072467 C177.96450892 455.42061248 177.87200911 457.71515908 177.80698359 460.00963092 C177.76887568 461.26590289 177.73076777 462.52217486 177.69150507 463.81651568 C177.64840205 465.42582965 177.60529902 467.03514361 177.56088984 468.69322467 C177.41651484 473.78759967 177.27213984 478.88197467 177.12338984 484.13072467 C166.89338984 484.13072467 156.66338984 484.13072467 146.12338984 484.13072467 C145.79338984 494.69072467 145.46338984 505.25072467 145.12338984 516.13072467 C135.22338984 516.13072467 125.32338984 516.13072467 115.12338984 516.13072467 C114.33998335 520.04775714 113.99496566 523.09397301 113.99057734 527.01744342 C113.98864375 528.67163287 113.98864375 528.67163287 113.98667109 530.35924029 C113.99053828 531.50070514 113.99440547 532.64216998 113.99838984 533.81822467 C113.99452265 534.97129107 113.99065547 536.12435748 113.98667109 537.31236529 C113.98796015 538.41129107 113.98924922 539.51021686 113.99057734 540.64244342 C113.99226923 542.1500423 113.99226923 542.1500423 113.99399531 543.68809772 C113.96078632 546.13824499 113.96078632 546.13824499 115.12338984 548.13072467 C104.23338984 548.13072467 93.34338984 548.13072467 82.12338984 548.13072467 C82.16298806 558.28785559 82.16298806 558.28785559 82.21347773 568.44493365 C82.21722407 570.32934161 82.21722407 570.32934161 82.22104609 572.25181842 C82.22628291 573.54531207 82.23151972 574.83880572 82.23691523 576.17149615 C82.12338984 579.13072467 82.12338984 579.13072467 81.12338984 580.13072467 C78.9048372 580.21856009 76.68350488 580.23767076 74.46323359 580.22838092 C73.46653399 580.2262585 73.46653399 580.2262585 72.44969904 580.2240932 C70.32005085 580.21847985 68.19050645 580.20592521 66.06088984 580.19322467 C64.62013615 580.18821138 63.17938081 580.18364818 61.73862422 580.17955279 C58.20017882 580.16850612 54.66179445 580.15123259 51.12338984 580.13072467 C50.32365692 583.65010543 49.99503794 586.90323487 49.99057734 590.50963092 C49.98928828 591.51316607 49.98799922 592.51670123 49.98667109 593.55064654 C49.99053828 594.58769732 49.99440547 595.62474811 49.99838984 596.69322467 C49.99452265 597.73414264 49.99065547 598.77506061 49.98667109 599.84752154 C49.98796015 600.84976764 49.98924922 601.85201373 49.99057734 602.88463092 C49.99226923 604.25083575 49.99226923 604.25083575 49.99399531 605.64464068 C50.05847772 608.41446 50.05847772 608.41446 51.12338984 612.13072467 C40.23338984 612.13072467 29.34338984 612.13072467 18.12338984 612.13072467 C18.12338984 622.69072467 18.12338984 633.25072467 18.12338984 644.13072467 C7.56338984 644.13072467 -2.99661016 644.13072467 -13.87661016 644.13072467 C-13.87661016 654.36072467 -13.87661016 664.59072467 -13.87661016 675.13072467 C-29.71661016 675.62572467 -29.71661016 675.62572467 -45.87661016 676.13072467 C-45.89756543 683.91211419 -45.91760255 691.69340185 -45.92836034 699.4747951 C-45.93364632 703.0982357 -45.940713 706.72165299 -45.95204961 710.34508014 C-45.96289554 713.83340571 -45.96889063 717.32170865 -45.9714874 720.81004977 C-45.97424097 722.79210159 -45.98205026 724.77414427 -45.98990667 726.75618243 C-45.9899822 727.95727649 -45.99005773 729.15837054 -45.99013555 730.39586139 C-45.99235616 731.45731372 -45.99457677 732.51876605 -45.99686468 733.6123836 C-46.04675443 736.12713861 -46.04675443 736.12713861 -44.87661016 738.13072467 C-38.60016444 738.15572124 -32.32374864 738.17372292 -26.04726446 738.18565631 C-23.91867858 738.19063903 -21.79009605 738.19742762 -19.66152227 738.20616412 C-16.57565769 738.21849887 -13.48983892 738.22401365 -10.40395391 738.22838092 C-9.47517934 738.2335422 -8.54640478 738.23870349 -7.58948553 738.24402118 C0.39255076 738.24467662 8.09872762 737.66570215 16.12338984 737.13072467 C16.12338984 716.34072467 16.12338984 695.55072467 16.12338984 674.13072467 C26.68338984 674.13072467 37.24338984 674.13072467 48.12338984 674.13072467 C48.12338984 663.57072467 48.12338984 653.01072467 48.12338984 642.13072467 C58.68338984 642.13072467 69.24338984 642.13072467 80.12338984 642.13072467 C80.45338984 631.57072467 80.78338984 621.01072467 81.12338984 610.13072467 C91.35338984 610.13072467 101.58338984 610.13072467 112.12338984 610.13072467 C112.12338984 599.90072467 112.12338984 589.67072467 112.12338984 579.13072467 C122.68338984 578.80072467 133.24338984 578.47072467 144.12338984 578.13072467 C143.79338984 577.47072467 143.46338984 576.81072467 143.12338984 576.13072467 C143.45338984 576.13072467 143.78338984 576.13072467 144.12338984 576.13072467 C144.12338984 566.56072467 144.12338984 556.99072467 144.12338984 547.13072467 C146.24260859 547.07013873 148.36182734 547.00955279 150.54526484 546.94713092 C152.60389246 546.88527424 154.66246872 546.82191449 156.72104609 546.75841022 C158.14873372 546.71517149 159.57646938 546.67348882 161.00424922 546.63341022 C163.0597348 546.57543865 165.11498112 546.51182292 167.17026484 546.44713092 C168.40615351 546.4104732 169.64204218 546.37381549 170.91538203 546.33604693 C173.49526642 546.17092648 175.6669409 545.88428597 178.12338984 545.13072467 C178.12338984 545.46072467 178.12338984 545.79072467 178.12338984 546.13072467 C188.35338984 546.13072467 198.58338984 546.13072467 209.12338984 546.13072467 C209.12338984 535.57072467 209.12338984 525.01072467 209.12338984 514.13072467 C223.97338984 513.63572467 223.97338984 513.63572467 239.12338984 513.13072467 C239.95396139 508.14729539 240.26576327 503.57863486 240.25278437 498.57091022 C240.25453669 497.73283328 240.25628901 496.89475635 240.25809443 496.03128314 C240.26247617 493.2766485 240.25958928 490.52207864 240.25620234 487.76744342 C240.25687612 485.85027309 240.25784676 483.93310284 240.25910151 482.0159328 C240.26057322 478.00723206 240.25843965 473.99855366 240.25376093 469.98985553 C240.24804468 464.84022104 240.25135793 459.69063846 240.2573334 454.54100585 C240.26093681 450.58720766 240.25980178 446.63342191 240.25720561 442.67962337 C240.25653672 440.77971969 240.25736342 438.8798149 240.25968516 436.97991252 C240.26221015 434.33443309 240.25837418 431.68903946 240.25278437 429.04356647 C240.25582072 427.85685351 240.25582072 427.85685351 240.2589184 426.64616656 C240.57454749 423.09377305 240.57454749 423.09377305 239.12338984 420.13072467 C236.97780157 420.04296862 234.82934563 420.02377248 232.68198359 420.03306842 C231.50692255 420.03556598 230.33186152 420.03806354 229.12119257 420.04063678 C227.61629267 420.04974078 226.11139277 420.05884479 224.56088984 420.06822467 C219.79651484 420.08884967 215.03213984 420.10947467 210.12338984 420.13072467 Z M306.12338984 420.13072467 C306.12338984 450.82072467 306.12338984 481.51072467 306.12338984 513.13072467 C316.35338984 513.13072467 326.58338984 513.13072467 337.12338984 513.13072467 C337.06088984 528.50572467 337.06088984 528.50572467 337.03330195 533.35484576 C337.03080439 534.60862018 337.02830683 535.86239459 337.02573359 537.15416217 C337.02049677 538.442419 337.01525996 539.73067584 337.00986445 541.05797076 C336.90796353 544.04477695 336.90796353 544.04477695 338.12338984 546.13072467 C359.24338984 546.13072467 380.36338984 546.13072467 402.12338984 546.13072467 C402.12338984 556.69072467 402.12338984 567.25072467 402.12338984 578.13072467 C412.68338984 578.13072467 423.24338984 578.13072467 434.12338984 578.13072467 C434.12338984 588.69072467 434.12338984 599.25072467 434.12338984 610.13072467 C438.10401484 610.15134967 442.08463984 610.17197467 446.18588984 610.19322467 C448.04806147 610.20688067 448.04806147 610.20688067 449.94785273 610.22081256 C450.94550654 610.22331012 451.94316035 610.22580768 452.97104609 610.22838092 C454.48710444 610.23623614 454.48710444 610.23623614 456.03379023 610.24425006 C459.41512835 610.12000492 462.77377693 609.6092408 466.12338984 609.13072467 C466.12338984 620.02072467 466.12338984 630.91072467 466.12338984 642.13072467 C476.68338984 642.13072467 487.24338984 642.13072467 498.12338984 642.13072467 C498.12338984 652.69072467 498.12338984 663.25072467 498.12338984 674.13072467 C513.96338984 674.62572467 513.96338984 674.62572467 530.12338984 675.13072467 C530.12338984 695.59072467 530.12338984 716.05072467 530.12338984 737.13072467 C534.966016 737.73605294 539.13064011 738.25570724 543.89682734 738.24425006 C545.48757075 738.24413676 545.48757075 738.24413676 547.11045039 738.24402118 C548.22847041 738.23885989 549.34649043 738.23369861 550.49838984 738.22838092 C552.24599604 738.2262585 552.24599604 738.2262585 554.02890742 738.2240932 C557.72709504 738.21852383 561.42522071 738.20597698 565.12338984 738.19322467 C567.64031605 738.18820571 570.15724321 738.1836435 572.67417109 738.17955279 C578.82393158 738.16856443 584.97365628 738.15185695 591.12338984 738.13072467 C592.21101033 724.78990064 592.24102248 711.50819146 592.18588984 698.13072467 C592.18086107 695.98749656 592.17630062 693.84426729 592.17221797 691.70103717 C592.16219061 686.51088034 592.14259686 681.3208876 592.12338984 676.13072467 C581.23338984 676.13072467 570.34338984 676.13072467 559.12338984 676.13072467 C559.12338984 665.57072467 559.12338984 655.01072467 559.12338984 644.13072467 C548.89338984 644.13072467 538.66338984 644.13072467 528.12338984 644.13072467 C528.18588984 630.94322467 528.18588984 630.94322467 528.21347773 626.80967975 C528.21597529 625.72581988 528.21847285 624.64196002 528.22104609 623.52525592 C528.22628291 622.42028766 528.23151972 621.3153194 528.23691523 620.17686725 C528.19137502 616.77965469 528.19137502 616.77965469 527.12338984 612.13072467 C516.56338984 612.13072467 506.00338984 612.13072467 495.12338984 612.13072467 C495.12338984 601.57072467 495.12338984 591.01072467 495.12338984 580.13072467 C493.14338984 580.46072467 491.16338984 580.79072467 489.12338984 581.13072467 C488.79338984 580.80072467 488.46338984 580.47072467 488.12338984 580.13072467 C486.34267738 580.04346244 484.55855844 580.02373426 482.77573359 580.03306842 C481.31768305 580.03681476 481.31768305 580.03681476 479.83017695 580.04063678 C477.96437983 580.05429278 477.96437983 580.05429278 476.06088984 580.06822467 C472.12151484 580.08884967 468.18213984 580.10947467 464.12338984 580.13072467 C463.79338984 569.57072467 463.46338984 559.01072467 463.12338984 548.13072467 C452.89338984 548.13072467 442.66338984 548.13072467 432.12338984 548.13072467 C431.79338984 537.57072467 431.46338984 527.01072467 431.12338984 516.13072467 C430.13338984 516.13072467 429.14338984 516.13072467 428.12338984 516.13072467 C418.45672317 516.13072467 408.79005651 516.13072467 399.12338984 516.13072467 C399.24907343 514.17392779 399.24907343 514.17392779 399.37729609 512.17759967 C399.48060243 510.41200046 399.58344171 508.64637388 399.68588984 506.88072467 C399.74196406 506.02736529 399.79803828 505.17400592 399.85581172 504.29478717 C400.2457667 497.32759148 399.71672309 491.25072371 399.12338984 484.13072467 C388.56338984 484.13072467 378.00338984 484.13072467 367.12338984 484.13072467 C367.12338984 473.90072467 367.12338984 463.67072467 367.12338984 453.13072467 C356.89338984 452.80072467 346.66338984 452.47072467 336.12338984 452.13072467 C336.24838984 437.25572467 336.24838984 437.25572467 336.30356562 432.5648067 C336.30856074 431.35163775 336.31355586 430.13846881 336.31870234 428.88853717 C336.32917597 427.64217486 336.33964961 426.39581256 336.35044062 425.1116817 C336.43991476 422.01300836 336.43991476 422.01300836 334.12338984 420.13072467 C324.88338984 420.13072467 315.64338984 420.13072467 306.12338984 420.13072467 Z " fill="#000101" transform="translate(238.87661015987396,60.86927533149719)"/>
<path d="M0 0 C6.09433333 0.00229584 12.188664 -0.0012471 18.28299677 -0.00397992 C29.52226373 -0.00814688 40.76152525 -0.00781575 52.00079208 -0.00506845 C62.46140434 -0.00252554 72.92201463 -0.00190851 83.38262713 -0.0030911 C84.08393963 -0.00316748 84.78525212 -0.00324387 85.50781652 -0.00332257 C88.35787323 -0.00363412 91.20792995 -0.00395254 94.05798667 -0.00428233 C120.77695344 -0.00733648 147.49591685 -0.00458259 174.2148831 0.00081457 C196.84042776 0.00535064 219.46596731 0.00542832 242.09151196 0.00080835 C421.43516805 -0.03576791 421.43516805 -0.03576791 526.92563593 0.36216998 C527.79503905 0.36712684 528.66444216 0.3720837 529.56019083 0.37719077 C561.41516357 0.56021542 593.26903575 0.85666194 625.12338984 1.13072467 C625.12338984 44.36072467 625.12338984 87.59072467 625.12338984 132.13072467 C614.56338984 132.13072467 604.00338984 132.13072467 593.12338984 132.13072467 C593.45338984 142.36072467 593.78338984 152.59072467 594.12338984 163.13072467 C577.82365162 164.29499168 577.82365162 164.29499168 570.87338984 164.25572467 C570.1424914 164.25959186 569.41159297 164.26345904 568.65854609 164.26744342 C563.37730334 164.25768142 563.37730334 164.25768142 561.12338984 163.13072467 C561.12338984 173.69072467 561.12338984 184.25072467 561.12338984 195.13072467 C550.56338984 195.13072467 540.00338984 195.13072467 529.12338984 195.13072467 C529.16298895 205.61695632 529.16298895 205.61695632 529.21347773 216.10313678 C529.21722407 218.04845294 529.21722407 218.04845294 529.22104609 220.03306842 C529.22616206 220.71888995 529.23127802 221.40471148 529.23654902 222.11131549 C529.23686038 223.78487698 529.18561821 225.45832047 529.12338984 227.13072467 C528.12338984 228.13072467 528.12338984 228.13072467 525.16416132 228.24425006 C523.87066767 228.23901324 522.57717402 228.23377643 521.24448359 228.22838092 C520.21448992 228.2262585 520.21448992 228.2262585 519.1636883 228.2240932 C516.96271183 228.21847946 514.76183575 228.20592474 512.56088984 228.19322467 C511.07195901 228.18821143 509.5830266 228.18364822 508.09409297 228.17955279 C504.43715909 228.1685056 500.78028426 228.1512318 497.12338984 228.13072467 C497.12862666 229.06456988 497.13386347 229.9984151 497.13925898 230.96055865 C497.15626604 234.41385263 497.16882286 237.86710234 497.17832148 241.32042193 C497.18336105 242.81717385 497.19019271 244.31392082 497.19882929 245.81065631 C497.21091143 247.95772274 497.21662175 250.10472429 497.22104609 252.25181842 C497.22628291 253.54531207 497.23151972 254.83880572 497.23691523 256.17149615 C497.12338984 259.13072467 497.12338984 259.13072467 496.12338984 260.13072467 C493.83187567 260.21863442 491.5376646 260.23766505 489.24448359 260.22838092 C488.21448992 260.2262585 488.21448992 260.2262585 487.1636883 260.2240932 C484.96271183 260.21847946 482.76183575 260.20592474 480.56088984 260.19322467 C479.07195901 260.18821143 477.5830266 260.18364822 476.09409297 260.17955279 C472.43715909 260.1685056 468.78028426 260.1512318 465.12338984 260.13072467 C465.36678095 260.92700274 465.36678095 260.92700274 465.61508906 261.73936725 C466.23818296 264.67078162 466.25313936 267.39488309 466.25620234 270.39244342 C466.2574914 271.59320514 466.25878047 272.79396686 466.26010859 274.03111529 C466.2562414 275.28086139 466.25237422 276.53060748 466.24838984 277.81822467 C466.25225703 279.07957232 466.25612422 280.34091998 466.26010859 281.64049029 C466.25881953 282.83738482 466.25753047 284.03427936 466.25620234 285.26744342 C466.25451045 286.91812823 466.25451045 286.91812823 466.25278437 288.60216022 C466.12338984 291.13072467 466.12338984 291.13072467 465.12338984 292.13072467 C462.74797933 292.21911115 460.40105404 292.2460999 458.02573359 292.22838092 C456.08041743 292.22463458 456.08041743 292.22463458 454.09580195 292.22081256 C452.43428095 292.21170856 450.77275996 292.20260455 449.06088984 292.19322467 C443.80151484 292.17259967 438.54213984 292.15197467 433.12338984 292.13072467 C433.12338984 302.69072467 433.12338984 313.25072467 433.12338984 324.13072467 C422.56338984 324.13072467 412.00338984 324.13072467 401.12338984 324.13072467 C401.12338984 326.44072467 401.12338984 328.75072467 401.12338984 331.13072467 C400.79338984 331.13072467 400.46338984 331.13072467 400.12338984 331.13072467 C400.12338984 328.49072467 400.12338984 325.85072467 400.12338984 323.13072467 C389.89338984 323.13072467 379.66338984 323.13072467 369.12338984 323.13072467 C369.12338984 322.80072467 369.12338984 322.47072467 369.12338984 322.13072467 C379.35338984 322.13072467 389.58338984 322.13072467 400.12338984 322.13072467 C400.12338984 311.57072467 400.12338984 301.01072467 400.12338984 290.13072467 C415.96338984 289.63572467 415.96338984 289.63572467 432.12338984 289.13072467 C432.45338984 278.90072467 432.78338984 268.67072467 433.12338984 258.13072467 C443.68338984 258.13072467 454.24338984 258.13072467 465.12338984 258.13072467 C465.12338984 247.57072467 465.12338984 237.01072467 465.12338984 226.13072467 C475.68338984 226.13072467 486.24338984 226.13072467 497.12338984 226.13072467 C497.12338984 215.57072467 497.12338984 205.01072467 497.12338984 194.13072467 C507.35338984 194.13072467 517.58338984 194.13072467 528.12338984 194.13072467 C528.12338984 183.24072467 528.12338984 172.35072467 528.12338984 161.13072467 C538.35338984 161.13072467 548.58338984 161.13072467 559.12338984 161.13072467 C559.12338984 151.56072467 559.12338984 141.99072467 559.12338984 132.13072467 C370.03338984 132.13072467 180.94338984 132.13072467 -13.87661016 132.13072467 C-13.87661016 141.70072467 -13.87661016 151.27072467 -13.87661016 161.13072467 C-3.64661016 161.13072467 6.58338984 161.13072467 17.12338984 161.13072467 C17.12338984 172.02072467 17.12338984 182.91072467 17.12338984 194.13072467 C27.68338984 194.13072467 38.24338984 194.13072467 49.12338984 194.13072467 C49.45338984 204.36072467 49.78338984 214.59072467 50.12338984 225.13072467 C60.35338984 225.46072467 70.58338984 225.79072467 81.12338984 226.13072467 C81.12338984 236.69072467 81.12338984 247.25072467 81.12338984 258.13072467 C91.68338984 258.13072467 102.24338984 258.13072467 113.12338984 258.13072467 C113.12338984 268.69072467 113.12338984 279.25072467 113.12338984 290.13072467 C123.68338984 290.13072467 134.24338984 290.13072467 145.12338984 290.13072467 C145.12338984 300.69072467 145.12338984 311.25072467 145.12338984 322.13072467 C155.68338984 322.13072467 166.24338984 322.13072467 177.12338984 322.13072467 C177.45338984 332.36072467 177.78338984 342.59072467 178.12338984 353.13072467 C188.35338984 353.46072467 198.58338984 353.79072467 209.12338984 354.13072467 C209.45338984 364.36072467 209.78338984 374.59072467 210.12338984 385.13072467 C220.35338984 385.46072467 230.58338984 385.79072467 241.12338984 386.13072467 C241.12338984 397.35072467 241.12338984 408.57072467 241.12338984 420.13072467 C230.89338984 420.13072467 220.66338984 420.13072467 210.12338984 420.13072467 C210.12338984 431.02072467 210.12338984 441.91072467 210.12338984 453.13072467 C199.89338984 453.13072467 189.66338984 453.13072467 179.12338984 453.13072467 C178.79338984 463.69072467 178.46338984 474.25072467 178.12338984 485.13072467 C167.89338984 485.13072467 157.66338984 485.13072467 147.12338984 485.13072467 C146.79338984 495.69072467 146.46338984 506.25072467 146.12338984 517.13072467 C135.89338984 517.13072467 125.66338984 517.13072467 115.12338984 517.13072467 C115.12338984 527.36072467 115.12338984 537.59072467 115.12338984 548.13072467 C104.23338984 548.13072467 93.34338984 548.13072467 82.12338984 548.13072467 C82.53129728 558.24326275 82.53129728 558.24326275 82.96176875 568.35484576 C83.00736933 569.60862018 83.05296992 570.86239459 83.09995234 572.15416217 C83.1523205 573.442419 83.20468867 574.73067584 83.25864375 576.05797076 C83.12338984 579.13072467 83.12338984 579.13072467 81.12338984 581.13072467 C78.14243281 581.35777545 78.14243281 581.35777545 74.36557734 581.32603717 C73.15240839 581.32104205 71.93923945 581.31604693 70.68930781 581.31090045 C68.36730341 581.28358844 68.36730341 581.28358844 65.99838984 581.25572467 C61.08963984 581.21447467 56.18088984 581.17322467 51.12338984 581.13072467 C51.12338984 591.36072467 51.12338984 601.59072467 51.12338984 612.13072467 C40.23338984 612.13072467 29.34338984 612.13072467 18.12338984 612.13072467 C18.12338984 622.69072467 18.12338984 633.25072467 18.12338984 644.13072467 C7.56338984 644.13072467 -2.99661016 644.13072467 -13.87661016 644.13072467 C-13.54661016 654.69072467 -13.21661016 665.25072467 -12.87661016 676.13072467 C-23.76661016 676.13072467 -34.65661016 676.13072467 -45.87661016 676.13072467 C-45.87661016 695.93072467 -45.87661016 715.73072467 -45.87661016 736.13072467 C-45.21661016 736.46072467 -44.55661016 736.79072467 -43.87661016 737.13072467 C-44.86661016 737.46072467 -45.85661016 737.79072467 -46.87661016 738.13072467 C-46.87661016 717.34072467 -46.87661016 696.55072467 -46.87661016 675.13072467 C-48.85661016 675.13072467 -50.83661016 675.13072467 -52.87661016 675.13072467 C-52.87661016 674.80072467 -52.87661016 674.47072467 -52.87661016 674.13072467 C-51.22661016 674.13072467 -49.57661016 674.13072467 -47.87661016 674.13072467 C-47.87661016 663.57072467 -47.87661016 653.01072467 -47.87661016 642.13072467 C-38.30661016 641.80072467 -28.73661016 641.47072467 -18.87661016 641.13072467 C-16.82646044 637.03042522 -16.66296611 635.5426167 -16.78676641 631.12291217 C-16.80674688 629.97177936 -16.82672735 628.82064654 -16.84731328 627.63463092 C-16.90871127 625.207451 -16.97383967 622.78036269 -17.04262578 620.35338092 C-17.07066289 618.63054889 -17.07066289 618.63054889 -17.09926641 616.87291217 C-17.12770635 615.81958697 -17.15614629 614.76626178 -17.18544805 613.68101764 C-17.08353155 612.83942096 -16.98161504 611.99782428 -16.87661016 611.13072467 C-13.53167937 608.90077081 -12.44657743 608.88340706 -8.54457891 608.90025592 C-7.49850469 608.90218951 -6.45243047 608.90412311 -5.37465703 608.90611529 C-4.28217657 608.91836139 -3.1896961 608.93060748 -2.06411016 608.94322467 C-0.98323125 608.9438692 0.09764765 608.94451373 1.21128047 608.94517779 C6.39332637 608.97380788 10.96635837 609.27121942 16.12338984 610.13072467 C16.12338984 599.57072467 16.12338984 589.01072467 16.12338984 578.13072467 C26.68338984 578.13072467 37.24338984 578.13072467 48.12338984 578.13072467 C47.75485798 567.97341097 47.75485798 567.97341097 47.37509882 557.81651568 C47.31044428 555.93210773 47.31044428 555.93210773 47.24448359 554.00963092 C47.17378657 552.06939044 47.17378657 552.06939044 47.10166132 550.08995318 C47.12338984 547.13072467 47.12338984 547.13072467 48.12338984 546.13072467 C50.14761629 545.98437232 52.17662408 545.90327449 54.20542109 545.84947467 C55.44743281 545.81209186 56.68944453 545.77470904 57.96909297 545.73619342 C59.27813593 545.70138873 60.5871789 545.66658404 61.93588984 545.63072467 C64.50501063 545.56180638 67.07403222 545.48905462 69.64292109 545.41197467 C70.78865595 545.3816817 71.93439082 545.35138873 73.11484492 545.32017779 C75.61693941 545.1626167 77.73576979 544.85289476 80.12338984 544.13072467 C79.95589228 543.26109088 79.78839472 542.39145709 79.61582148 541.49547076 C79.14951991 538.30926937 79.08924466 535.50305833 79.24448359 532.29478717 C79.29282343 531.23131061 79.34116328 530.16783404 79.39096797 529.07213092 C79.44704218 527.97771686 79.5031164 526.88330279 79.56088984 525.75572467 C79.61309687 524.63810748 79.6653039 523.52049029 79.71909297 522.36900592 C79.848198 519.62258975 79.98313888 516.87659045 80.12338984 514.13072467 C83.60004079 513.06183943 86.79476462 513.015967 90.42026484 513.03306842 C91.50662226 513.03556598 92.59297968 513.03806354 93.71225703 513.04063678 C95.77201777 513.05429278 95.77201777 513.05429278 97.87338984 513.06822467 C102.24588984 513.08884967 106.61838984 513.10947467 111.12338984 513.13072467 C111.45338984 502.90072467 111.78338984 492.67072467 112.12338984 482.13072467 C115.59618388 480.97312666 118.10377808 481.10811984 121.76010859 481.25181842 C122.93017451 481.29492145 124.10024043 481.33802447 125.30576289 481.38243365 C126.79245478 481.44374469 128.27914668 481.50505572 129.81088984 481.56822467 C134.53401484 481.75384967 139.25713984 481.93947467 144.12338984 482.13072467 C144.12338984 471.57072467 144.12338984 461.01072467 144.12338984 450.13072467 C154.68338984 450.13072467 165.24338984 450.13072467 176.12338984 450.13072467 C176.12338984 439.57072467 176.12338984 429.01072467 176.12338984 418.13072467 C186.68338984 418.13072467 197.24338984 418.13072467 208.12338984 418.13072467 C208.12338984 408.56072467 208.12338984 398.99072467 208.12338984 389.13072467 C197.56338984 388.80072467 187.00338984 388.47072467 176.12338984 388.13072467 C176.12338984 377.57072467 176.12338984 367.01072467 176.12338984 356.13072467 C165.96625892 356.17032289 165.96625892 356.17032289 155.80918086 356.22081256 C154.55290888 356.22331012 153.29663691 356.22580768 152.00229609 356.22838092 C150.06205561 356.23623614 150.06205561 356.23623614 148.08261836 356.24425006 C145.12338984 356.13072467 145.12338984 356.13072467 144.12338984 355.13072467 C144.03548009 352.8392105 144.01644946 350.54499943 144.02573359 348.25181842 C144.02785601 347.22182475 144.02785601 347.22182475 144.03002131 346.17102313 C144.03563505 343.97004666 144.04818977 341.76917058 144.06088984 339.56822467 C144.06590308 338.07929384 144.07046629 336.59036143 144.07456172 335.10142779 C144.08560891 331.44449392 144.10288271 327.78761908 144.12338984 324.13072467 C142.72262202 324.13857989 142.72262202 324.13857989 141.29355586 324.14659381 C137.84026188 324.16360087 134.38701217 324.17615769 130.93369257 324.18565631 C129.43694066 324.19069588 127.94019368 324.19752754 126.4434582 324.20616412 C124.29639177 324.21824626 122.14939022 324.22395658 120.00229609 324.22838092 C118.06205561 324.23623614 118.06205561 324.23623614 116.08261836 324.24425006 C113.12338984 324.13072467 113.12338984 324.13072467 112.12338984 323.13072467 C112.03548009 320.8392105 112.01644946 318.54499943 112.02573359 316.25181842 C112.02785601 315.22182475 112.02785601 315.22182475 112.03002131 314.17102313 C112.03563505 311.97004666 112.04818977 309.76917058 112.06088984 307.56822467 C112.06590308 306.07929384 112.07046629 304.59036143 112.07456172 303.10142779 C112.08560891 299.44449392 112.10288271 295.78761908 112.12338984 292.13072467 C110.72262202 292.13857989 110.72262202 292.13857989 109.29355586 292.14659381 C105.84026188 292.16360087 102.38701217 292.17615769 98.93369257 292.18565631 C97.43694066 292.19069588 95.94019368 292.19752754 94.4434582 292.20616412 C92.29639177 292.21824626 90.14939022 292.22395658 88.00229609 292.22838092 C86.06205561 292.23623614 86.06205561 292.23623614 84.08261836 292.24425006 C81.12338984 292.13072467 81.12338984 292.13072467 80.12338984 291.13072467 C80.03548009 288.8392105 80.01644946 286.54499943 80.02573359 284.25181842 C80.02785601 283.22182475 80.02785601 283.22182475 80.03002131 282.17102313 C80.03563505 279.97004666 80.04818977 277.76917058 80.06088984 275.56822467 C80.06590308 274.07929384 80.07046629 272.59036143 80.07456172 271.10142779 C80.08560891 267.44449392 80.10288271 263.78761908 80.12338984 260.13072467 C79.22507441 260.13596148 78.32675898 260.1411983 77.40122187 260.14659381 C74.07276485 260.16362192 70.74435403 260.17616804 67.41587031 260.18565631 C65.97445664 260.1906894 64.53304808 260.1975164 63.09165156 260.20616412 C61.02148899 260.2182745 58.95139383 260.22396314 56.88120234 260.22838092 C55.63484004 260.23361773 54.38847773 260.23885455 53.10434687 260.24425006 C50.12338984 260.13072467 50.12338984 260.13072467 48.12338984 259.13072467 C48.12338984 248.90072467 48.12338984 238.67072467 48.12338984 228.13072467 C42.45597775 228.16967252 42.45597775 228.16967252 36.78867304 228.22081256 C29.79794988 228.24443759 23.17054692 227.67281367 16.12338984 227.13072467 C16.12338984 216.57072467 16.12338984 206.01072467 16.12338984 195.13072467 C13.15338984 195.46072467 10.18338984 195.79072467 7.12338984 196.13072467 C5.15297167 196.14439 3.18109846 196.1108354 1.21323359 196.00963092 C0.30178584 195.96652789 -0.60966192 195.92342486 -1.5487293 195.87901568 C-2.66755498 195.81770465 -3.78638067 195.75639361 -4.93911016 195.69322467 C-8.54848516 195.50759967 -12.15786016 195.32197467 -15.87661016 195.13072467 C-15.87661016 184.57072467 -15.87661016 174.01072467 -15.87661016 163.13072467 C-18.18661016 163.46072467 -20.49661016 163.79072467 -22.87661016 164.13072467 C-24.92773789 164.14514983 -26.98000203 164.1051779 -29.02895391 164.00963092 C-30.02660772 163.96652789 -31.02426153 163.92342486 -32.05214727 163.87901568 C-33.29359502 163.81770465 -34.53504278 163.75639361 -35.81411016 163.69322467 C-39.79473516 163.50759967 -43.77536016 163.32197467 -47.87661016 163.13072467 C-47.87661016 152.90072467 -47.87661016 142.67072467 -47.87661016 132.13072467 C-58.10661016 132.13072467 -68.33661016 132.13072467 -78.87661016 132.13072467 C-79.02958096 115.19814041 -79.17840582 98.26553721 -79.31957376 81.33285117 C-79.38525029 73.47125965 -79.4528209 65.60969282 -79.52480352 57.74815631 C-79.58751631 50.89849883 -79.6467232 44.04882171 -79.7016657 37.19909734 C-79.73089895 33.57001062 -79.76192457 29.94095866 -79.79714429 26.3119247 C-79.83633213 22.26726345 -79.86769468 18.2225788 -79.89833868 14.17784381 C-79.91128469 12.96584308 -79.9242307 11.75384234 -79.93756902 10.50511432 C-79.94460851 9.40989963 -79.951648 8.31468493 -79.95890081 7.18628192 C-79.96719695 6.22853901 -79.97549308 5.2707961 -79.98404062 4.28403068 C-79.87661016 2.13072467 -79.87661016 2.13072467 -78.87661016 1.13072467 C-74.39862093 0.74483008 -69.89439084 0.70037417 -65.40207708 0.57631183 C-64.68192007 0.55534029 -63.96176306 0.53436876 -63.2197831 0.51276173 C-42.15120301 -0.08659974 -21.07512231 -0.01178605 0 0 Z " fill="#010102" transform="translate(238.87661015987396,60.86927533149719)"/>
<path d="M0 0 C0.99 0.495 0.99 0.495 2 1 C3.86032515 1.09952769 5.72425689 1.13389532 7.5872364 1.1386652 C8.78253979 1.14413964 9.97784317 1.14961409 11.20936787 1.15525442 C12.54762905 1.15633076 13.8858903 1.15731543 15.22415161 1.15821838 C16.63656088 1.1627814 18.0489688 1.16778103 19.46137512 1.17318195 C23.3561917 1.18680218 27.25099952 1.19419261 31.14583373 1.20060861 C35.34080395 1.20859555 39.53575583 1.22229917 43.73071289 1.23532104 C51.00329135 1.25710808 58.27587164 1.2752444 65.54846573 1.29092598 C76.06351495 1.31360437 86.57854389 1.34174998 97.09357594 1.37124526 C114.15205601 1.41894612 131.21054435 1.46220353 148.26904297 1.50268555 C164.84326827 1.5420278 181.41748622 1.58345096 197.99169922 1.62768555 C199.52323978 1.63177196 199.52323978 1.63177196 201.08572055 1.63594092 C206.20773175 1.64962019 211.32974283 1.6633405 216.45175385 1.67708123 C258.96782073 1.79108517 301.4839037 1.89761292 344 2 C344 12.89 344 23.78 344 35 C333.77 35 323.54 35 313 35 C313 45.56 313 56.12 313 67 C302.44 67 291.88 67 281 67 C281 77.56 281 88.12 281 99 C270.44 99 259.88 99 249 99 C249.03959822 109.15713092 249.03959822 109.15713092 249.09008789 119.31420898 C249.09383423 121.19861694 249.09383423 121.19861694 249.09765625 123.12109375 C249.10551147 125.06133423 249.10551147 125.06133423 249.11352539 127.04077148 C249 130 249 130 248 131 C245.62458949 131.08838648 243.2776642 131.11537523 240.90234375 131.09765625 C238.95702759 131.09390991 238.95702759 131.09390991 236.97241211 131.09008789 C235.31089111 131.08098389 233.64937012 131.07187988 231.9375 131.0625 C226.678125 131.041875 221.41875 131.02125 216 131 C216 141.56 216 152.12 216 163 C205.77 163 195.54 163 185 163 C185.01160156 165.29839844 185.02320313 167.59679687 185.03515625 169.96484375 C185.04294709 172.18220888 185.04902369 174.39957251 185.05493164 176.61694336 C185.0599714 178.16219766 185.0668032 179.70744716 185.07543945 181.25268555 C185.08752076 183.46925029 185.09323173 185.68575218 185.09765625 187.90234375 C185.10539818 188.94454323 185.10539818 188.94454323 185.11329651 190.00779724 C185.11349277 191.6722933 185.06189129 193.33665499 185 195 C184 196 184 196 181.04077148 196.11352539 C179.74727783 196.10828857 178.45378418 196.10305176 177.12109375 196.09765625 C175.86482178 196.09515869 174.6085498 196.09266113 173.31420898 196.09008789 C170.90023804 196.07643188 170.90023804 196.07643188 168.4375 196.0625 C163.343125 196.041875 158.24875 196.02125 153 196 C153 206.23 153 216.46 153 227 C142.44 227 131.88 227 121 227 C121.16371094 231.60710937 121.32742188 236.21421875 121.49609375 240.9609375 C122.1854788 262.78681132 122.11566937 284.61148657 122.06866455 306.44586182 C122.05822225 311.83109123 122.05382335 317.21632577 122.04882812 322.6015625 C122.03827328 333.06772338 122.02076743 343.5338544 122 354 C132.23 354 142.46 354 153 354 C153 354.33 153 354.66 153 355 C110.76 355 68.52 355 25 355 C25 354.67 25 354.34 25 354 C34.9 354 44.8 354 55 354 C55 323.31 55 292.62 55 261 C55.66 261 56.32 261 57 261 C57 249.78 57 238.56 57 227 C46.84286908 227.03959822 46.84286908 227.03959822 36.68579102 227.09008789 C35.42951904 227.09258545 34.17324707 227.09508301 32.87890625 227.09765625 C31.5854126 227.10289307 30.29191895 227.10812988 28.95922852 227.11352539 C26 227 26 227 25 226 C24.91209025 223.70848583 24.89305962 221.41427476 24.90234375 219.12109375 C24.90446617 218.09110008 24.90446617 218.09110008 24.90663147 217.04029846 C24.91224521 214.83932199 24.92479993 212.63844591 24.9375 210.4375 C24.94251324 208.94856917 24.94707645 207.45963676 24.95117188 205.97070312 C24.96221907 202.31376925 24.97949287 198.65689442 25 195 C24.06615479 195.00523682 23.13230957 195.01047363 22.17016602 195.01586914 C18.71687204 195.0328762 15.26362233 195.04543302 11.81030273 195.05493164 C10.31355082 195.05997121 8.81680384 195.06680287 7.32006836 195.07543945 C5.17300193 195.08752159 3.02600038 195.09323191 0.87890625 195.09765625 C-0.4145874 195.10289307 -1.70808105 195.10812988 -3.04077148 195.11352539 C-6 195 -6 195 -7 194 C-7.08790975 191.70848583 -7.10694038 189.41427476 -7.09765625 187.12109375 C-7.09515869 185.86482178 -7.09266113 184.6085498 -7.09008789 183.31420898 C-7.08098389 181.70489502 -7.07187988 180.09558105 -7.0625 178.4375 C-7.041875 173.343125 -7.02125 168.24875 -7 163 C-17.56 163 -28.12 163 -39 163 C-39 152.44 -39 141.88 -39 131 C-49.56 131 -60.12 131 -71 131 C-71 120.44 -71 109.88 -71 99 C-81.56 99 -92.12 99 -103 99 C-103 88.44 -103 77.88 -103 67 C-113.15713092 67.03959822 -113.15713092 67.03959822 -123.31420898 67.09008789 C-124.57048096 67.09258545 -125.82675293 67.09508301 -127.12109375 67.09765625 C-129.06133423 67.10551147 -129.06133423 67.10551147 -131.04077148 67.11352539 C-134 67 -134 67 -135 66 C-135.08790975 63.70848583 -135.10694038 61.41427476 -135.09765625 59.12109375 C-135.09515869 57.86482178 -135.09266113 56.6085498 -135.09008789 55.31420898 C-135.08098389 53.70489502 -135.07187988 52.09558105 -135.0625 50.4375 C-135.041875 45.343125 -135.02125 40.24875 -135 35 C-145.56 35 -156.12 35 -167 35 C-167 24.11 -167 13.22 -167 2 C-148.84070962 1.01850605 -130.76495177 0.93475346 -112.59015012 1.10053515 C-108.61579119 1.13550892 -104.64138336 1.16367555 -100.66697693 1.19264221 C-93.1807652 1.2481985 -85.69461467 1.30965291 -78.20846838 1.37336355 C-69.66883421 1.4457424 -61.12915183 1.5113372 -52.58945954 1.57643402 C-35.05957662 1.71021 -17.52977079 1.85227186 0 2 C0 1.34 0 0.68 0 0 Z " fill="#8BB1FE" transform="translate(423,220)"/>
<path d="M0 0 C211.2 0 422.4 0 640 0 C640 21.45 640 42.9 640 65 C428.8 65 217.6 65 0 65 C0 43.55 0 22.1 0 0 Z " fill="#547DE7" transform="translate(192,831)"/>
<path d="M0 0 C211.2 0 422.4 0 640 0 C640 21.45 640 42.9 640 65 C428.8 65 217.6 65 0 65 C0 43.55 0 22.1 0 0 Z " fill="#557EE7" transform="translate(192,95)"/>
<path d="M0 0 C0.99 0.495 0.99 0.495 2 1 C4.00097518 1.12027472 6.0058621 1.17737258 8.01025391 1.20532227 C9.27141022 1.22526749 10.53256653 1.24521271 11.8319397 1.26576233 C13.21347937 1.28274665 14.59502034 1.29962546 15.9765625 1.31640625 C17.38618582 1.3369756 18.79580297 1.35797207 20.20541382 1.37937927 C23.91747035 1.43460195 27.62958257 1.48401031 31.34173584 1.53222656 C35.79464821 1.59126702 40.24745872 1.65749606 44.70028687 1.72252655 C51.46679575 1.82053857 58.23336965 1.9093927 65 2 C65 12.56 65 23.12 65 34 C75.56 34 86.12 34 97 34 C97.33 44.23 97.66 54.46 98 65 C108.23 65 118.46 65 129 65 C129 75.89 129 86.78 129 98 C139.56 98 150.12 98 161 98 C161 108.56 161 119.12 161 130 C171.89 130 182.78 130 194 130 C193.67 150.79 193.34 171.58 193 193 C194.98 193 196.96 193 199 193 C199 193.33 199 193.66 199 194 C194.31403387 194.75226593 189.82799968 195.12398115 185.08399963 195.12025452 C184.42465028 195.12110894 183.76530093 195.12196337 183.0859713 195.12284368 C180.89655984 195.12447894 178.70722656 195.11900943 176.51782227 195.11352539 C174.94045514 195.11324307 173.36308788 195.11340213 171.78572083 195.1139679 C167.51766483 195.11425412 163.24963709 195.10838566 158.98158765 195.10139394 C154.51596041 195.09513128 150.05033249 195.0945543 145.58470154 195.09336853 C137.13467863 195.0902638 128.6846687 195.08206198 120.23465151 195.07201904 C108.81169849 195.05873821 97.38874191 195.05335107 85.96578312 195.04751682 C67.97717903 195.03812151 49.98860233 195.01819686 32 195 C32 152.43 32 109.86 32 66 C21.44 66 10.88 66 0 66 C0 44.22 0 22.44 0 0 Z " fill="#8BB1FD" transform="translate(576,605)"/>
<path d="M0 0 C0.99 0.33 1.98 0.66 3 1 C17.85 1.495 17.85 1.495 33 2 C33 23.12 33 44.24 33 66 C22.44 66 11.88 66 1 66 C1 108.24 1 150.48 1 194 C-57.08 194 -115.16 194 -175 194 C-175 193.67 -175 193.34 -175 193 C-173.62652901 192.80160975 -172.25108154 192.61689017 -170.875 192.4375 C-170.10929688 192.33308594 -169.34359375 192.22867188 -168.5546875 192.12109375 C-166 192 -166 192 -160 193 C-160 172.21 -160 151.42 -160 130 C-150.43 129.67 -140.86 129.34 -131 129 C-130.01 128.67 -129.02 128.34 -128 128 C-128 118.1 -128 108.2 -128 98 C-117.44 98 -106.88 98 -96 98 C-96 87.44 -96 76.88 -96 66 C-93.26305716 64.63152858 -91.06400753 64.87032079 -88.00390625 64.8671875 C-86.80572266 64.86589844 -85.60753906 64.86460937 -84.37304688 64.86328125 C-83.11556641 64.86714844 -81.85808594 64.87101563 -80.5625 64.875 C-79.30888672 64.87113281 -78.05527344 64.86726562 -76.76367188 64.86328125 C-75.56419922 64.86457031 -74.36472656 64.86585938 -73.12890625 64.8671875 C-71.47483765 64.86887939 -71.47483765 64.86887939 -69.78735352 64.87060547 C-67 65 -67 65 -64 66 C-64.33 55.44 -64.66 44.88 -65 34 C-50.125 33.625 -50.125 33.625 -45.43408203 33.52197266 C-43.61432861 33.46855713 -43.61432861 33.46855713 -41.7578125 33.4140625 C-40.5114502 33.3826416 -39.26508789 33.3512207 -37.98095703 33.31884766 C-34.88458224 33.30317691 -34.88458224 33.30317691 -33 31 C-32.72108853 27.98736275 -32.72108853 27.98736275 -32.8046875 24.4609375 C-32.81113281 23.15898438 -32.81757813 21.85703125 -32.82421875 20.515625 C-32.84093071 19.13541405 -32.85786061 17.75520571 -32.875 16.375 C-32.88502994 14.98698548 -32.89415577 13.59896411 -32.90234375 12.2109375 C-32.92598137 8.80711974 -32.95893133 5.40364494 -33 2 C-32.0713916 1.97494385 -31.1427832 1.9498877 -30.18603516 1.92407227 C-26.74564196 1.82902068 -23.30542287 1.72978293 -19.86523438 1.62768555 C-18.37537359 1.58433411 -16.88546305 1.54265916 -15.39550781 1.50268555 C-13.25570673 1.44498785 -11.11615615 1.38129245 -8.9765625 1.31640625 C-7.68830566 1.27974854 -6.40004883 1.24309082 -5.07275391 1.20532227 C-2.0872318 1.20469325 -2.0872318 1.20469325 0 0 Z " fill="#8BB1FE" transform="translate(415,605)"/>
<path d="M0 0 C42.24 0 84.48 0 128 0 C128 31.68 128 63.36 128 96 C117.44 96 106.88 96 96 96 C96 74.88 96 53.76 96 32 C75.21 32 54.42 32 33 32 C33 53.45 33 74.9 33 97 C22.11 97 11.22 97 0 97 C0 64.99 0 32.98 0 0 Z " fill="#EFC850" transform="translate(448,703)"/>
<path d="M0 0 C20.79 0 41.58 0 63 0 C63 20.79 63 41.58 63 63 C42.21 63 21.42 63 0 63 C0 42.21 0 21.42 0 0 Z " fill="#8CB3FD" transform="translate(480,608)"/>
<path d="M0 0 C211.2 0 422.4 0 640 0 C640 21.45 640 42.9 640 65 C428.8 65 217.6 65 0 65 C0 43.55 0 22.1 0 0 Z M2 2 C2 22.13 2 42.26 2 63 C211.88 63 421.76 63 638 63 C638 42.87 638 22.74 638 2 C428.12 2 218.24 2 2 2 Z " fill="#6391F6" transform="translate(192,831)"/>
<path d="M0 0 C211.2 0 422.4 0 640 0 C640 21.45 640 42.9 640 65 C428.8 65 217.6 65 0 65 C0 43.55 0 22.1 0 0 Z M2 1 C2 21.46 2 41.92 2 63 C211.88 63 421.76 63 638 63 C638 42.54 638 22.08 638 1 C428.12 1 218.24 1 2 1 Z " fill="#6EA3FA" transform="translate(192,95)"/>
<path d="M0 0 C42.24 0 84.48 0 128 0 C128 31.68 128 63.36 128 96 C117.44 96 106.88 96 96 96 C96 74.55 96 53.1 96 31 C96.33 31 96.66 31 97 31 C97 52.12 97 73.24 97 95 C106.57 95 116.14 95 126 95 C126 64.31 126 33.62 126 2 C85.08 2 44.16 2 2 2 C2 32.69 2 63.38 2 95 C11.57 95 21.14 95 31 95 C31 74.21 31 53.42 31 32 C31.33 32 31.66 32 32 32 C32 53.12 32 74.24 32 96 C21.44 96 10.88 96 0 96 C0 64.32 0 32.64 0 0 Z " fill="#E5D460" transform="translate(448,703)"/>
<path d="M0 0 C0.33 0 0.66 0 1 0 C1 21.45 1 42.9 1 65 C-80.675 64.505 -80.675 64.505 -164 64 C-164 63.67 -164 63.34 -164 63 C-110.21 63 -56.42 63 -1 63 C-1 42.54 -1 22.08 -1 1 C-0.67 0.67 -0.34 0.34 0 0 Z " fill="#6593F4" transform="translate(831,95)"/>
<path d="M0 0 C0.66 0 1.32 0 2 0 C2.56395565 25.22726845 3.09971469 50.45305055 3.125 75.6875 C3.12749756 76.57170624 3.12999512 77.45591248 3.13256836 78.36691284 C3.13835137 80.83189021 3.13704519 83.29674068 3.1328125 85.76171875 C3.13479645 86.48836731 3.1367804 87.21501587 3.13882446 87.96368408 C3.11543929 92.88456071 3.11543929 92.88456071 2 94 C-0.3756852 94.0883967 -2.72208674 94.11530305 -5.09765625 94.09765625 C-6.16094398 94.09553383 -6.16094398 94.09553383 -7.24571228 94.09336853 C-9.51801712 94.08775443 -11.79022475 94.07519963 -14.0625 94.0625 C-15.59960796 94.05748681 -17.13671745 94.05292359 -18.67382812 94.04882812 C-22.44925642 94.03778042 -26.22461171 94.02050641 -30 94 C-30 93.67 -30 93.34 -30 93 C-20.1 93 -10.2 93 0 93 C0 62.31 0 31.62 0 0 Z " fill="#89A7F0" transform="translate(478,481)"/>
<path d="M0 0 C0.99 0.33 1.98 0.66 3 1 C5.2825699 1.15145099 7.56887706 1.24886979 9.85546875 1.31640625 C10.51710526 1.33718735 11.17874176 1.35796844 11.86042786 1.37937927 C13.96934852 1.44464727 16.07839135 1.50365344 18.1875 1.5625 C19.61915315 1.60570689 21.05079404 1.64932188 22.48242188 1.69335938 C25.98815154 1.80030506 29.49401786 1.90163641 33 2 C33 2.33 33 2.66 33 3 C11.88 3 -9.24 3 -31 3 C-31 7.62 -31 12.24 -31 17 C-31.33 17 -31.66 17 -32 17 C-32.84768402 11.9138959 -33.04298983 7.15877929 -33 2 C-32.0713916 1.97494385 -31.1427832 1.9498877 -30.18603516 1.92407227 C-26.74564196 1.82902068 -23.30542287 1.72978293 -19.86523438 1.62768555 C-18.37537359 1.58433411 -16.88546305 1.54265916 -15.39550781 1.50268555 C-13.25570673 1.44498785 -11.11615615 1.38129245 -8.9765625 1.31640625 C-7.68830566 1.27974854 -6.40004883 1.24309082 -5.07275391 1.20532227 C-2.0872318 1.20469325 -2.0872318 1.20469325 0 0 Z " fill="#86A4ED" transform="translate(415,605)"/>
<path d="M0 0 C0.33 0 0.66 0 1 0 C1.02464638 5.82071622 1.0428343 11.64140234 1.05493164 17.4621582 C1.05997267 19.44393441 1.06680538 21.42570689 1.07543945 23.4074707 C1.08751515 26.24952109 1.09323045 29.09152247 1.09765625 31.93359375 C1.10281754 32.82525742 1.10797882 33.71692108 1.11329651 34.63560486 C1.11349177 36.75740601 1.0621003 38.8791078 1 41 C0 42 0 42 -3.05102539 42.11352539 C-4.39991271 42.11336634 -5.74880614 42.10767612 -7.09765625 42.09765625 C-8.16094398 42.09553383 -8.16094398 42.09553383 -9.24571228 42.09336853 C-11.51801712 42.08775443 -13.79022475 42.07519963 -16.0625 42.0625 C-17.59960796 42.05748681 -19.13671745 42.05292359 -20.67382812 42.04882812 C-24.44925642 42.03778042 -28.22461171 42.02050641 -32 42 C-32 41.67 -32 41.34 -32 41 C-22.1 41 -12.2 41 -2 41 C-1.09206462 36.4603231 -0.78443265 32.2323171 -0.68359375 27.63671875 C-0.66281265 26.84473587 -0.64203156 26.05275299 -0.62062073 25.23677063 C-0.55552196 22.72043072 -0.49642577 20.20399128 -0.4375 17.6875 C-0.394277 15.97590139 -0.35066152 14.26431265 -0.30664062 12.55273438 C-0.19988153 8.36859016 -0.09850365 4.18434638 0 0 Z " fill="#89ABE2" transform="translate(480,533)"/>
<path d="M0 0 C0.33 0 0.66 0 1 0 C1.85214779 7.06888778 2.12746455 14.0088832 2.0625 21.125 C2.05798828 22.08148437 2.05347656 23.03796875 2.04882812 24.0234375 C2.03720038 26.34898622 2.01927208 28.67450207 2 31 C6.62 31 11.24 31 16 31 C16 31.33 16 31.66 16 32 C13.5211787 32.19389096 11.04219069 32.38040123 8.5625 32.5625 C7.50192383 32.64661133 7.50192383 32.64661133 6.41992188 32.73242188 C4.61572163 32.86190993 2.80768048 32.93521608 1 33 C0 32 0 32 -0.11352539 28.94897461 C-0.11336634 27.60008729 -0.10767612 26.25119386 -0.09765625 24.90234375 C-0.0962413 24.19348526 -0.09482635 23.48462677 -0.09336853 22.75428772 C-0.08775443 20.48198288 -0.07519963 18.20977525 -0.0625 15.9375 C-0.05748681 14.40039204 -0.05292359 12.86328255 -0.04882812 11.32617188 C-0.03778042 7.55074358 -0.02050641 3.77538829 0 0 Z " fill="#1F263B" transform="translate(702,609)"/>
<path d="M0 0 C1.65 0 3.3 0 5 0 C5 0.33 5 0.66 5 1 C3.35 1 1.7 1 0 1 C0 0.67 0 0.34 0 0 Z " fill="#0A0B12" transform="translate(176,733)"/>
<path d="M0 0 C1.65 0 3.3 0 5 0 C5 0.33 5 0.66 5 1 C3.35 1 1.7 1 0 1 C0 0.67 0 0.34 0 0 Z " fill="#0B0D17" transform="translate(399,509)"/>
<path d="M0 0 C4 1 4 1 4 1 Z " fill="#0A0B11" transform="translate(841,733)"/>
<path d="M0 0 C1.485 0.99 1.485 0.99 3 2 C2.01 2 1.02 2 0 2 C0 1.34 0 0.68 0 0 Z " fill="#94B2F8" transform="translate(706,700)"/>
<path d="M0 0 C0.66 0.66 1.32 1.32 2 2 C1.34 2 0.68 2 0 2 C0 1.34 0 0.68 0 0 Z " fill="#94B2F8" transform="translate(738,732)"/>
<path d="M0 0 C3 1 3 1 3 1 Z " fill="#8CAAF0" transform="translate(267,733)"/>
<path d="M0 0 C3 1 3 1 3 1 Z " fill="#0A0B11" transform="translate(187,733)"/>
<path d="M0 0 C0.66 0 1.32 0 2 0 C1.67 0.66 1.34 1.32 1 2 C0.67 1.34 0.34 0.68 0 0 Z " fill="#272D45" transform="translate(792,706)"/>
<path d="M0 0 C3 1 3 1 3 1 Z " fill="#819CDF" transform="translate(669,637)"/>
<path d="M0 0 C3 1 3 1 3 1 Z " fill="#95B3F9" transform="translate(643,637)"/>
<path d="M0 0 C3 1 3 1 3 1 Z " fill="#0C1017" transform="translate(283,637)"/>
<path d="M0 0 C3 1 3 1 3 1 Z " fill="#8DA8F0" transform="translate(615,605)"/>
<path d="M0 0 C3 1 3 1 3 1 Z " fill="#0A0B14" transform="translate(619,509)"/>
<path d="M0 0 C3 1 3 1 3 1 Z " fill="#0E1019" transform="translate(609,509)"/>
<path d="M0 0 C3 1 3 1 3 1 Z " fill="#0C0E19" transform="translate(411,509)"/>
<path d="M0 0 C2 1 2 1 2 1 Z " fill="#4C5A86" transform="translate(226,735)"/>
<path d="M0 0 C2 1 2 1 2 1 Z " fill="#0B0E13" transform="translate(851,733)"/>
<path d="M0 0 C2 1 2 1 2 1 Z " fill="#8EABF1" transform="translate(751,733)"/>
<path d="M0 0 C2 1 2 1 2 1 Z " fill="#92B0F6" transform="translate(743,733)"/>
<path d="M0 0 C2 1 2 1 2 1 Z " fill="#8DABF3" transform="translate(271,733)"/>
<path d="M0 0 C2 1 2 1 2 1 Z " fill="#090B11" transform="translate(184,733)"/>
<path d="M0 0 C2 1 2 1 2 1 Z " fill="#48547D" transform="translate(774,706)"/>
<path d="M0 0 C2 1 2 1 2 1 Z " fill="#89A7EE" transform="translate(296,701)"/>
<path d="" fill="#92AEF7" transform="translate(0,0)"/>
<path d="" fill="#90ADF5" transform="translate(0,0)"/>
<path d="" fill="#242B42" transform="translate(0,0)"/>
<path d="M0 0 C2 1 2 1 2 1 Z " fill="#292F49" transform="translate(759,674)"/>
<path d="" fill="#5C6C9C" transform="translate(0,0)"/>
<path d="M0 0 C2 1 2 1 2 1 Z " fill="#8FABF2" transform="translate(656,637)"/>
<path d="M0 0 C2 1 2 1 2 1 Z " fill="#92B0F9" transform="translate(376,637)"/>
<path d="" fill="#282E48" transform="translate(0,0)"/>
<path d="M0 0 C2 1 2 1 2 1 Z " fill="#86A0E6" transform="translate(591,605)"/>
<path d="M0 0 C2 1 2 1 2 1 Z " fill="#0B0E17" transform="translate(408,509)"/>
<path d="M0 0 C2 1 2 1 2 1 Z " fill="#0A0D16" transform="translate(392,509)"/>
<path d="M0 0 C2 1 2 1 2 1 Z " fill="#84A2ED" transform="translate(673,220)"/>
<path d="M0 0 C2 1 2 1 2 1 Z " fill="#84A2ED" transform="translate(406,220)"/>
<path d="" fill="#030405" transform="translate(0,0)"/>
<path d="" fill="#191F2E" transform="translate(0,0)"/>
<path d="" fill="#738CCD" transform="translate(0,0)"/>
<path d="" fill="#161C2D" transform="translate(0,0)"/>
<path d="" fill="#7D99DF" transform="translate(0,0)"/>
<path d="" fill="#1B2033" transform="translate(0,0)"/>
<path d="" fill="#333B59" transform="translate(0,0)"/>
<path d="" fill="#202639" transform="translate(0,0)"/>
<path d="" fill="#0C0C14" transform="translate(0,0)"/>
<path d="" fill="#0A0C11" transform="translate(0,0)"/>
<path d="" fill="#0D0E15" transform="translate(0,0)"/>
<path d="" fill="#87A2E9" transform="translate(0,0)"/>
<path d="" fill="#92AFF7" transform="translate(0,0)"/>
<path d="" fill="#89A6ED" transform="translate(0,0)"/>
<path d="" fill="#282E47" transform="translate(0,0)"/>
<path d="" fill="#566695" transform="translate(0,0)"/>
<path d="" fill="#2F3853" transform="translate(0,0)"/>
<path d="" fill="#819CE2" transform="translate(0,0)"/>
<path d="" fill="#93B1F7" transform="translate(0,0)"/>
<path d="" fill="#94B0F8" transform="translate(0,0)"/>
<path d="" fill="#92AFF7" transform="translate(0,0)"/>
<path d="" fill="#92B0F6" transform="translate(0,0)"/>
<path d="" fill="#0C0F15" transform="translate(0,0)"/>
<path d="" fill="#2F3752" transform="translate(0,0)"/>
<path d="" fill="#47537A" transform="translate(0,0)"/>
<path d="" fill="#515F8E" transform="translate(0,0)"/>
<path d="" fill="#7E99DC" transform="translate(0,0)"/>
<path d="" fill="#566797" transform="translate(0,0)"/>
<path d="" fill="#91AFF7" transform="translate(0,0)"/>
<path d="" fill="#8AA5EB" transform="translate(0,0)"/>
<path d="" fill="#3B4769" transform="translate(0,0)"/>
<path d="" fill="#0C0D13" transform="translate(0,0)"/>
<path d="" fill="#0C0E15" transform="translate(0,0)"/>
<path d="" fill="#97B3FA" transform="translate(0,0)"/>
<path d="" fill="#5C6D9B" transform="translate(0,0)"/>
<path d="" fill="#2F3953" transform="translate(0,0)"/>
<path d="" fill="#0A0B13" transform="translate(0,0)"/>
<path d="" fill="#7F96DD" transform="translate(0,0)"/>
<path d="" fill="#819CE0" transform="translate(0,0)"/>
<path d="" fill="#87A2E8" transform="translate(0,0)"/>
<path d="" fill="#8CA8EE" transform="translate(0,0)"/>
<path d="" fill="#8CAAEF" transform="translate(0,0)"/>
<path d="" fill="#8BA8EE" transform="translate(0,0)"/>
<path d="" fill="#8AA5E9" transform="translate(0,0)"/>
<path d="" fill="#8AA5E9" transform="translate(0,0)"/>
<path d="" fill="#7994D5" transform="translate(0,0)"/>
<path d="" fill="#86A4E8" transform="translate(0,0)"/>
<path d="" fill="#8AA6F0" transform="translate(0,0)"/>
<path d="" fill="#88A5EC" transform="translate(0,0)"/>
<path d="" fill="#829EE4" transform="translate(0,0)"/>
<path d="" fill="#323A58" transform="translate(0,0)"/>
<path d="" fill="#738CC9" transform="translate(0,0)"/>
<path d="" fill="#7891D2" transform="translate(0,0)"/>
<path d="" fill="#1D2638" transform="translate(0,0)"/>
<path d="" fill="#0D1119" transform="translate(0,0)"/>
<path d="" fill="#2B3651" transform="translate(0,0)"/>
<path d="" fill="#2B344D" transform="translate(0,0)"/>
<path d="" fill="#080A13" transform="translate(0,0)"/>
<path d="" fill="#090B12" transform="translate(0,0)"/>
<path d="" fill="#090B14" transform="translate(0,0)"/>
<path d="" fill="#0B0C12" transform="translate(0,0)"/>
<path d="" fill="#090B14" transform="translate(0,0)"/>
<path d="" fill="#0D0E18" transform="translate(0,0)"/>
<path d="" fill="#0C0C16" transform="translate(0,0)"/>
<path d="" fill="#36425D" transform="translate(0,0)"/>
<path d="" fill="#0D0E15" transform="translate(0,0)"/>
<path d="" fill="#0A0E18" transform="translate(0,0)"/>
<path d="" fill="#131929" transform="translate(0,0)"/>
<path d="" fill="#151927" transform="translate(0,0)"/>
<path d="" fill="#0D131F" transform="translate(0,0)"/>
<path d="" fill="#1B2135" transform="translate(0,0)"/>
<path d="" fill="#10131E" transform="translate(0,0)"/>
<path d="" fill="#83A2EC" transform="translate(0,0)"/>
<path d="" fill="#87A3EC" transform="translate(0,0)"/>
<path d="" fill="#82A3EC" transform="translate(0,0)"/>
<path d="" fill="#85A4F0" transform="translate(0,0)"/>
<path d="" fill="#86A4EE" transform="translate(0,0)"/>
<path d="" fill="#85A1ED" transform="translate(0,0)"/>
<path d="" fill="#84A2EE" transform="translate(0,0)"/>
<path d="" fill="#83A4ED" transform="translate(0,0)"/>
<path d="" fill="#86A4ED" transform="translate(0,0)"/>
<path d="" fill="#85A4ED" transform="translate(0,0)"/>
<path d="" fill="#86A5ED" transform="translate(0,0)"/>
<path d="" fill="#84A2ED" transform="translate(0,0)"/>
<path d="" fill="#85A4EE" transform="translate(0,0)"/>
<path d="" fill="#85A3EC" transform="translate(0,0)"/>
<path d="" fill="#86A2EE" transform="translate(0,0)"/>
<path d="" fill="#86A4EE" transform="translate(0,0)"/>
<path d="" fill="#84A4EE" transform="translate(0,0)"/>
<path d="" fill="#88A4ED" transform="translate(0,0)"/>
<path d="" fill="#86A5ED" transform="translate(0,0)"/>
<path d="" fill="#84A3EE" transform="translate(0,0)"/>
<path d="" fill="#83A3ED" transform="translate(0,0)"/>
<path d="" fill="#85A3EF" transform="translate(0,0)"/>
<path d="" fill="#87A3F0" transform="translate(0,0)"/>
<path d="" fill="#85A2ED" transform="translate(0,0)"/>
<path d="" fill="#85A4EE" transform="translate(0,0)"/>
<path d="" fill="#84A4ED" transform="translate(0,0)"/>
<path d="" fill="#85A3ED" transform="translate(0,0)"/>
<path d="" fill="#85A3ED" transform="translate(0,0)"/>
<path d="" fill="#84A3EE" transform="translate(0,0)"/>
<path d="" fill="#85A2EC" transform="translate(0,0)"/>
<path d="" fill="#85A1EC" transform="translate(0,0)"/>
<path d="" fill="#86A3ED" transform="translate(0,0)"/>
<path d="" fill="#85A3EC" transform="translate(0,0)"/>
<path d="" fill="#86A3EF" transform="translate(0,0)"/>
<path d="" fill="#84A2EC" transform="translate(0,0)"/>
<path d="" fill="#84A1ED" transform="translate(0,0)"/>
<path d="" fill="#84A4EF" transform="translate(0,0)"/>
<path d="" fill="#83A2ED" transform="translate(0,0)"/>
<path d="" fill="#84A3EE" transform="translate(0,0)"/>
<path d="" fill="#84A2EE" transform="translate(0,0)"/>
<path d="" fill="#84A1ED" transform="translate(0,0)"/>
<path d="" fill="#83A2ED" transform="translate(0,0)"/>
<path d="" fill="#85A1ED" transform="translate(0,0)"/>
<path d="" fill="#84A1ED" transform="translate(0,0)"/>
<path d="" fill="#84A3ED" transform="translate(0,0)"/>
<path d="" fill="#85A3EE" transform="translate(0,0)"/>
<path d="" fill="#84A3EE" transform="translate(0,0)"/>
<path d="" fill="#85A4ED" transform="translate(0,0)"/>
<path d="" fill="#84A5EE" transform="translate(0,0)"/>
<path d="" fill="#86A4ED" transform="translate(0,0)"/>
<path d="" fill="#84A2ED" transform="translate(0,0)"/>
<path d="" fill="#86A4ED" transform="translate(0,0)"/>
<path d="" fill="#85A4EF" transform="translate(0,0)"/>
<path d="" fill="#86A4EE" transform="translate(0,0)"/>
<path d="" fill="#84A4EF" transform="translate(0,0)"/>
<path d="" fill="#86A4EF" transform="translate(0,0)"/>
<path d="" fill="#86A4ED" transform="translate(0,0)"/>
<path d="" fill="#86A3ED" transform="translate(0,0)"/>
<path d="" fill="#84A2EC" transform="translate(0,0)"/>
<path d="" fill="#7F9FE9" transform="translate(0,0)"/>
<path d="" fill="#7F9CE3" transform="translate(0,0)"/>
<path d="" fill="#7998E2" transform="translate(0,0)"/>
<path d="" fill="#7B97DF" transform="translate(0,0)"/>
<path d="" fill="#718ED2" transform="translate(0,0)"/>
<path d="" fill="#708ACF" transform="translate(0,0)"/>
<path d="" fill="#677EBD" transform="translate(0,0)"/>
<path d="" fill="#586FA5" transform="translate(0,0)"/>
<path d="" fill="#819FEA" transform="translate(0,0)"/>
<path d="" fill="#040407" transform="translate(0,0)"/>
</svg>
